<svg id="Layer_1" data-name="Layer 1" xmlns="http://www.w3.org/2000/svg" xmlns:xlink="http://www.w3.org/1999/xlink" viewBox="0 0 145.35 38"><defs><style>.cls-1{fill:url(#linear-gradient);}.cls-2{fill:url(#linear-gradient-2);}.cls-3{fill:url(#linear-gradient-3);}.cls-4{fill:url(#linear-gradient-5);}.cls-5{fill:url(#linear-gradient-6);}.cls-6{fill:url(#linear-gradient-7);}.cls-7{fill:url(#linear-gradient-11);}.cls-8{fill:url(#linear-gradient-13);}.cls-9{fill:url(#linear-gradient-14);}.cls-10{fill:url(#linear-gradient-15);}.cls-11{fill:url(#linear-gradient-16);}.cls-12{fill:url(#linear-gradient-29);}</style><linearGradient id="linear-gradient" x1="-9.62" y1="25.28" x2="17.89" y2="-2.22" gradientUnits="userSpaceOnUse"><stop offset="0" stop-color="#91ff55"/><stop offset="0.99" stop-color="#55ffdb"/></linearGradient><linearGradient id="linear-gradient-2" x1="-6.26" y1="28.64" x2="21.24" y2="1.13" xlink:href="#linear-gradient"/><linearGradient id="linear-gradient-3" x1="4.43" y1="33.2" x2="28.02" y2="9.61" xlink:href="#linear-gradient"/><linearGradient id="linear-gradient-5" x1="-2.45" y1="32.45" x2="25.06" y2="4.94" xlink:href="#linear-gradient"/><linearGradient id="linear-gradient-6" x1="1.36" y1="36.26" x2="28.87" y2="8.76" xlink:href="#linear-gradient"/><linearGradient id="linear-gradient-7" x1="5.18" y1="40.08" x2="32.68" y2="12.57" xlink:href="#linear-gradient"/><linearGradient id="linear-gradient-11" x1="2.17" y1="35.46" x2="25.84" y2="11.79" xlink:href="#linear-gradient"/><linearGradient id="linear-gradient-13" x1="8.99" y1="43.89" x2="36.5" y2="16.39" xlink:href="#linear-gradient"/><linearGradient id="linear-gradient-14" x1="12.41" y1="47.31" x2="39.92" y2="19.81" xlink:href="#linear-gradient"/><linearGradient id="linear-gradient-15" x1="1.32" y1="21.05" x2="23.95" y2="-1.58" xlink:href="#linear-gradient"/><linearGradient id="linear-gradient-16" x1="90.48" y1="56.89" x2="91.63" y2="-0.35" gradientUnits="userSpaceOnUse"><stop offset="0.37" stop-color="#6affac"/><stop offset="0.91" stop-color="#55ffdb"/></linearGradient><linearGradient id="linear-gradient-29" x1="36.42" y1="22.74" x2="56.38" y2="2.78" xlink:href="#linear-gradient"/></defs><path class="cls-1" d="M3.13,7.63h4v7.12H0v-4A3.13,3.13,0,0,1,3.13,7.63Z"/><rect class="cls-2" x="7.63" y="7.63" width="7.12" height="7.12"/><path class="cls-3" d="M22.88,7.63h3.66A3.46,3.46,0,0,1,30,11.09v3.66H22.88Z"/><rect class="cls-2" y="15.25" width="7.12" height="7.12"/><rect class="cls-4" x="7.63" y="15.25" width="7.12" height="7.12"/><rect class="cls-5" x="15.25" y="15.25" width="7.12" height="7.12"/><rect class="cls-6" x="22.88" y="15.25" width="7.12" height="7.12"/><rect class="cls-4" y="22.88" width="7.12" height="7.12"/><rect class="cls-5" x="7.63" y="22.88" width="7.12" height="7.12"/><rect class="cls-6" x="15.25" y="22.88" width="7.12" height="7.12"/><path class="cls-7" d="M0,30.51H7.12v7.12H3.38A3.39,3.39,0,0,1,0,34.24Z"/><rect class="cls-6" x="7.63" y="30.51" width="7.12" height="7.12"/><rect class="cls-8" x="15.25" y="30.51" width="7.12" height="7.12"/><path class="cls-9" d="M22.88,30.51H30V35a2.67,2.67,0,0,1-2.66,2.67H22.88Z"/><rect class="cls-10" x="15.25" width="7.12" height="7.12" rx="2.15"/><path d="M37.3,21.81V7.94h2V21.81Zm1.8-4.3V15.66h2.28a3.37,3.37,0,0,0,2.43-.8,3.13,3.13,0,0,0,.82-2.33,2.54,2.54,0,0,0-.82-2,3.71,3.71,0,0,0-2.43-.69H39.14V7.94h2.24A5.89,5.89,0,0,1,45.33,9.1a4.29,4.29,0,0,1,1.35,3.43,4.87,4.87,0,0,1-1.35,3.72,5.56,5.56,0,0,1-3.95,1.26Z"/><path d="M48.36,21.81V20H52.5v1.82ZM49,13.27V11.46h5.43v1.81Zm4.32-3.45a1.45,1.45,0,0,1-1.44-1.45,1.37,1.37,0,0,1,.42-1,1.46,1.46,0,0,1,2,0,1.37,1.37,0,0,1,.42,1,1.39,1.39,0,0,1-.42,1A1.4,1.4,0,0,1,53.27,9.82Zm-1,12V12h2.07v9.77Zm1.87,0V20h3.38v1.82Z"/><path d="M66.2,21.81l-3.15-4.47-4.16-5.88h2.35l3.18,4.64,4.12,5.71Zm-7.31,0L63,16.1l3.19-4.64h2.34l-4.28,5.88-3,4.47Z"/><path d="M75.67,22a5.62,5.62,0,0,1-4.08-1.39,5.31,5.31,0,0,1-1.44-4,5.77,5.77,0,0,1,1.22-3.94,4.3,4.3,0,0,1,3.44-1.41,4.14,4.14,0,0,1,3.25,1.27,5.32,5.32,0,0,1,1.15,3.69c0,.48,0,.92-.06,1.33H71.88V16h5.45a3.16,3.16,0,0,0-.66-2.15,2.36,2.36,0,0,0-1.84-.74,2.46,2.46,0,0,0-2,.9,3.89,3.89,0,0,0-.73,2.53,3.57,3.57,0,0,0,1,2.74,4,4,0,0,0,2.85.94,10.69,10.69,0,0,0,1.27-.08c.41-.05.84-.11,1.27-.2l.25,1.82A12.53,12.53,0,0,1,77,22C76.51,22,76.06,22,75.67,22Z"/><path d="M80.93,9V7.16h3.22V9Zm6.45,13a3.17,3.17,0,0,1-2.6-1A4.9,4.9,0,0,1,84,17.9V7.16h2.07V17.8a4.9,4.9,0,0,0,.15,1.34,1.23,1.23,0,0,0,.61.76,2.84,2.84,0,0,0,1.35.25,8,8,0,0,0,2.07-.37l.23,1.81a11.49,11.49,0,0,1-1.52.32A12.61,12.61,0,0,1,87.38,22Z"/><path d="M92,9V7.16h3.22V9Zm6.45,13a3.17,3.17,0,0,1-2.6-1A4.9,4.9,0,0,1,95,17.9V7.16h2.07V17.8a4.9,4.9,0,0,0,.15,1.34,1.23,1.23,0,0,0,.61.76,2.84,2.84,0,0,0,1.35.25,8,8,0,0,0,2.07-.37l.23,1.81a11.49,11.49,0,0,1-1.52.32A12.73,12.73,0,0,1,98.44,22Z"/><path d="M106.43,22a3.68,3.68,0,0,1-2.51-.78A2.78,2.78,0,0,1,103,19a2.91,2.91,0,0,1,1.22-2.51,5.88,5.88,0,0,1,3.47-.88,10.29,10.29,0,0,1,1.65.11,5.73,5.73,0,0,1,1.3.34l-.43,1.4A7.39,7.39,0,0,0,109,17.3l-1.28,0c-1.8,0-2.7.54-2.7,1.64a1.28,1.28,0,0,0,.47,1,2,2,0,0,0,1.31.37,3.6,3.6,0,0,0,1.62-.33,2.39,2.39,0,0,0,1-.85,2,2,0,0,0,.32-1.06V17l.61,2.66h-.83l.34-.31a2.55,2.55,0,0,1-.42,1.5,2.44,2.44,0,0,1-1.17.9A5,5,0,0,1,106.43,22Zm3.65-.09-.14-3.07-.27-.86V15.3a1.67,1.67,0,0,0-.73-1.51,4.07,4.07,0,0,0-2.16-.53l-2.48-.07.19-1.83,2.09,0a5.82,5.82,0,0,1,3.82,1.11,3.88,3.88,0,0,1,1.24,3.12v4.31l1.76.22v1.66Z"/><path d="M113.83,13.27V11.46h9.38v1.81Zm2.6,3.66V8.33h2.07v8.6ZM120.88,22a4.92,4.92,0,0,1-3.4-1,4.11,4.11,0,0,1-1-3.13V16.14h2.07V17.8a2.34,2.34,0,0,0,.6,1.79,2.87,2.87,0,0,0,2,.56,9.61,9.61,0,0,0,1-.06c.36,0,.78-.08,1.25-.14l.23,1.82a13.09,13.09,0,0,1-1.33.17C121.83,22,121.37,22,120.88,22Z"/><path d="M131,22a5.63,5.63,0,0,1-4.09-1.39,5.31,5.31,0,0,1-1.44-4,5.82,5.82,0,0,1,1.22-3.94,4.31,4.31,0,0,1,3.45-1.41,4.12,4.12,0,0,1,3.24,1.27,5.32,5.32,0,0,1,1.15,3.69c0,.48,0,.92-.06,1.33h-7.26V16h5.45a3.11,3.11,0,0,0-.67-2.15,2.34,2.34,0,0,0-1.83-.74,2.5,2.5,0,0,0-2,.9,4,4,0,0,0-.73,2.53,3.61,3.61,0,0,0,1,2.74,4,4,0,0,0,2.85.94,10.69,10.69,0,0,0,1.27-.08c.42-.05.84-.11,1.27-.2l.25,1.82a12.53,12.53,0,0,1-1.68.22C131.81,22,131.36,22,131,22Z"/><path d="M140.34,22a3.69,3.69,0,0,1-3.09-1.33,6.32,6.32,0,0,1-1.05-3.94,6.67,6.67,0,0,1,1.05-4.08,3.62,3.62,0,0,1,3.09-1.39,3,3,0,0,1,1.89.55,2.19,2.19,0,0,1,.85,1.52h.8l-.6,3a4,4,0,0,0-.63-2.43,2.2,2.2,0,0,0-1.86-.83,2.14,2.14,0,0,0-1.89.94,4.89,4.89,0,0,0-.64,2.77,4.48,4.48,0,0,0,.64,2.63,2.47,2.47,0,0,0,3.75.06,4,4,0,0,0,.63-2.44l.7,2.95h-.9a2.1,2.1,0,0,1-.83,1.53A3.11,3.11,0,0,1,140.34,22Zm3.15-.09-.21-2V7.16h2.07V21.81Z"/><path d="M37.11,37.81V23.94h2V37.81Zm1.89,0V36h1.47a4,4,0,0,0,3.21-1.22,5.37,5.37,0,0,0,1.08-3.66,6.15,6.15,0,0,0-1.08-4,3.9,3.9,0,0,0-3.21-1.31H39l-.23-1.86h1.66q6.35,0,6.34,7.13,0,6.74-6.34,6.74Z"/><path d="M53.56,38a5.63,5.63,0,0,1-4.09-1.39,5.31,5.31,0,0,1-1.44-4,5.77,5.77,0,0,1,1.22-3.94,4.31,4.31,0,0,1,3.45-1.41,4.12,4.12,0,0,1,3.24,1.27,5.32,5.32,0,0,1,1.15,3.69c0,.48,0,.92-.06,1.33H49.77V32h5.45a3.16,3.16,0,0,0-.67-2.15,2.34,2.34,0,0,0-1.83-.74,2.48,2.48,0,0,0-2,.9,3.89,3.89,0,0,0-.73,2.53,3.61,3.61,0,0,0,1,2.74,4,4,0,0,0,2.85.94,10.69,10.69,0,0,0,1.27-.08c.42,0,.84-.11,1.27-.2l.25,1.82A12.53,12.53,0,0,1,54.9,38C54.39,38,54,38,53.56,38Z"/><path d="M62.34,37.81l-3.7-10.35h2.2l2.79,8.59h.17l2.79-8.59h2.2l-3.7,10.35Z"/><path class="cls-11" d="M37.3,21.81V7.94h2V21.81Zm1.8-4.3V15.66h2.28a3.37,3.37,0,0,0,2.43-.8,3.13,3.13,0,0,0,.82-2.33,2.54,2.54,0,0,0-.82-2,3.71,3.71,0,0,0-2.43-.69H39.14V7.94h2.24A5.89,5.89,0,0,1,45.33,9.1a4.29,4.29,0,0,1,1.35,3.43,4.87,4.87,0,0,1-1.35,3.72,5.56,5.56,0,0,1-3.95,1.26Z"/><path class="cls-11" d="M48.36,21.81V20H52.5v1.82ZM49,13.27V11.46h5.43v1.81Zm4.32-3.45a1.45,1.45,0,0,1-1.44-1.45,1.37,1.37,0,0,1,.42-1,1.46,1.46,0,0,1,2,0,1.37,1.37,0,0,1,.42,1,1.39,1.39,0,0,1-.42,1A1.4,1.4,0,0,1,53.27,9.82Zm-1,12V12h2.07v9.77Zm1.87,0V20h3.38v1.82Z"/><path class="cls-11" d="M66.2,21.81l-3.15-4.47-4.16-5.88h2.35l3.18,4.64,4.12,5.71Zm-7.31,0L63,16.1l3.19-4.64h2.34l-4.28,5.88-3,4.47Z"/><path class="cls-11" d="M75.67,22a5.62,5.62,0,0,1-4.08-1.39,5.31,5.31,0,0,1-1.44-4,5.77,5.77,0,0,1,1.22-3.94,4.3,4.3,0,0,1,3.44-1.41,4.14,4.14,0,0,1,3.25,1.27,5.32,5.32,0,0,1,1.15,3.69c0,.48,0,.92-.06,1.33H71.88V16h5.45a3.16,3.16,0,0,0-.66-2.15,2.36,2.36,0,0,0-1.84-.74,2.46,2.46,0,0,0-2,.9,3.89,3.89,0,0,0-.73,2.53,3.57,3.57,0,0,0,1,2.74,4,4,0,0,0,2.85.94,10.69,10.69,0,0,0,1.27-.08c.41-.05.84-.11,1.27-.2l.25,1.82A12.53,12.53,0,0,1,77,22C76.51,22,76.06,22,75.67,22Z"/><path class="cls-11" d="M80.93,9V7.16h3.22V9Zm6.45,13a3.17,3.17,0,0,1-2.6-1A4.9,4.9,0,0,1,84,17.9V7.16h2.07V17.8a4.9,4.9,0,0,0,.15,1.34,1.23,1.23,0,0,0,.61.76,2.84,2.84,0,0,0,1.35.25,8,8,0,0,0,2.07-.37l.23,1.81a11.49,11.49,0,0,1-1.52.32A12.61,12.61,0,0,1,87.38,22Z"/><path class="cls-11" d="M92,9V7.16h3.22V9Zm6.45,13a3.17,3.17,0,0,1-2.6-1A4.9,4.9,0,0,1,95,17.9V7.16h2.07V17.8a4.9,4.9,0,0,0,.15,1.34,1.23,1.23,0,0,0,.61.76,2.84,2.84,0,0,0,1.35.25,8,8,0,0,0,2.07-.37l.23,1.81a11.49,11.49,0,0,1-1.52.32A12.73,12.73,0,0,1,98.44,22Z"/><path class="cls-11" d="M106.43,22a3.68,3.68,0,0,1-2.51-.78A2.78,2.78,0,0,1,103,19a2.91,2.91,0,0,1,1.22-2.51,5.88,5.88,0,0,1,3.47-.88,10.29,10.29,0,0,1,1.65.11,5.73,5.73,0,0,1,1.3.34l-.43,1.4A7.39,7.39,0,0,0,109,17.3l-1.28,0c-1.8,0-2.7.54-2.7,1.64a1.28,1.28,0,0,0,.47,1,2,2,0,0,0,1.31.37,3.6,3.6,0,0,0,1.62-.33,2.39,2.39,0,0,0,1-.85,2,2,0,0,0,.32-1.06V17l.61,2.66h-.83l.34-.31a2.55,2.55,0,0,1-.42,1.5,2.44,2.44,0,0,1-1.17.9A5,5,0,0,1,106.43,22Zm3.65-.09-.14-3.07-.27-.86V15.3a1.67,1.67,0,0,0-.73-1.51,4.07,4.07,0,0,0-2.16-.53l-2.48-.07.19-1.83,2.09,0a5.82,5.82,0,0,1,3.82,1.11,3.88,3.88,0,0,1,1.24,3.12v4.31l1.76.22v1.66Z"/><path class="cls-11" d="M113.83,13.27V11.46h9.38v1.81Zm2.6,3.66V8.33h2.07v8.6ZM120.88,22a4.92,4.92,0,0,1-3.4-1,4.11,4.11,0,0,1-1-3.13V16.14h2.07V17.8a2.34,2.34,0,0,0,.6,1.79,2.87,2.87,0,0,0,2,.56,9.61,9.61,0,0,0,1-.06c.36,0,.78-.08,1.25-.14l.23,1.82a13.09,13.09,0,0,1-1.33.17C121.83,22,121.37,22,120.88,22Z"/><path class="cls-11" d="M131,22a5.63,5.63,0,0,1-4.09-1.39,5.31,5.31,0,0,1-1.44-4,5.82,5.82,0,0,1,1.22-3.94,4.31,4.31,0,0,1,3.45-1.41,4.12,4.12,0,0,1,3.24,1.27,5.32,5.32,0,0,1,1.15,3.69c0,.48,0,.92-.06,1.33h-7.26V16h5.45a3.11,3.11,0,0,0-.67-2.15,2.34,2.34,0,0,0-1.83-.74,2.5,2.5,0,0,0-2,.9,4,4,0,0,0-.73,2.53,3.61,3.61,0,0,0,1,2.74,4,4,0,0,0,2.85.94,10.69,10.69,0,0,0,1.27-.08c.42-.05.84-.11,1.27-.2l.25,1.82a12.53,12.53,0,0,1-1.68.22C131.81,22,131.36,22,131,22Z"/><path class="cls-11" d="M140.34,22a3.69,3.69,0,0,1-3.09-1.33,6.32,6.32,0,0,1-1.05-3.94,6.67,6.67,0,0,1,1.05-4.08,3.62,3.62,0,0,1,3.09-1.39,3,3,0,0,1,1.89.55,2.19,2.19,0,0,1,.85,1.52h.8l-.6,3a4,4,0,0,0-.63-2.43,2.2,2.2,0,0,0-1.86-.83,2.14,2.14,0,0,0-1.89.94,4.89,4.89,0,0,0-.64,2.77,4.48,4.48,0,0,0,.64,2.63,2.47,2.47,0,0,0,3.75.06,4,4,0,0,0,.63-2.44l.7,2.95h-.9a2.1,2.1,0,0,1-.83,1.53A3.11,3.11,0,0,1,140.34,22Zm3.15-.09-.21-2V7.16h2.07V21.81Z"/><path class="cls-11" d="M37.11,37.81V23.94h2V37.81Zm1.89,0V36h1.47a4,4,0,0,0,3.21-1.22,5.37,5.37,0,0,0,1.08-3.66,6.15,6.15,0,0,0-1.08-4,3.9,3.9,0,0,0-3.21-1.31H39l-.23-1.86h1.66q6.35,0,6.34,7.13,0,6.74-6.34,6.74Z"/><path class="cls-11" d="M53.56,38a5.63,5.63,0,0,1-4.09-1.39,5.31,5.31,0,0,1-1.44-4,5.77,5.77,0,0,1,1.22-3.94,4.31,4.31,0,0,1,3.45-1.41,4.12,4.12,0,0,1,3.24,1.27,5.32,5.32,0,0,1,1.15,3.69c0,.48,0,.92-.06,1.33H49.77V32h5.45a3.16,3.16,0,0,0-.67-2.15,2.34,2.34,0,0,0-1.83-.74,2.48,2.48,0,0,0-2,.9,3.89,3.89,0,0,0-.73,2.53,3.61,3.61,0,0,0,1,2.74,4,4,0,0,0,2.85.94,10.69,10.69,0,0,0,1.27-.08c.42,0,.84-.11,1.27-.2l.25,1.82A12.53,12.53,0,0,1,54.9,38C54.39,38,54,38,53.56,38Z"/><path class="cls-11" d="M62.34,37.81l-3.7-10.35h2.2l2.79,8.59h.17l2.79-8.59h2.2l-3.7,10.35Z"/><path class="cls-12" d="M50.66,3.35h.46A4.69,4.69,0,0,1,55.81,8v.45a2,2,0,0,1-2,2H50.66a2,2,0,0,1-2-2V5.32A2,2,0,0,1,50.66,3.35Z"/></svg>